<svg xmlns="http://www.w3.org/2000/svg" viewBox="65 186.93181205455323 128 96.13584104219979" width="128" height="96.13584104219979">
  <g fill="none" fill-rule="none" stroke="none" stroke-width="1" stroke-linecap="butt" stroke-linejoin="miter" stroke-miterlimit="10" stroke-dasharray="" stroke-dashoffset="0" font-family="none" font-weight="none" font-size="none" text-anchor="none" style="mix-blend-mode: normal">
    <g data-paper-data='{"isGlobalGroup":true,"bounds":{"x":65,"y":186.93181205455323,"width":128,"height":96.13584104219979}}'>
      <g fill-rule="evenodd">
        <g>
          <path d="M149.69293,187.42077c-2.936,-1.286 -6.361,0.052 -7.64599,2.99l-37.00197,84.52193c-1.286,2.936 0.052,6.361 2.99,7.64599c2.936,1.286 6.361,-0.052 7.64699,-2.99l37.00197,-84.52193c1.286,-2.936 -0.053,-6.361 -2.991,-7.64599z" fill="#85c1e9" />
          <path d="M93.03668,212.76875c-2.2665,-2.268 -5.9437,-2.268 -8.21019,0l-18.12489,18.12399l-0.0014,0.001c-1.1325,1.134 -1.7002,2.62 -1.7002,4.106c0,1.486 0.5677,2.972 1.7002,4.106l18.12489,18.12599c2.2665,2.268 5.9423,2.268 8.21019,0c2.2665,-2.268 2.2665,-5.944 0,-8.20999l-14.01909,-14.02199l14.02049,-14.01999c2.2665,-2.267 2.2665,-5.944 0,-8.21099z" fill="#ffc300" />
          <path d="M172.90192,212.76875l18.12599,18.12499c1.134,1.134 1.702,2.62 1.702,4.106c0,1.486 -0.568,2.972 -1.702,4.104l-18.12599,18.12699c-2.268,2.268 -5.944,2.268 -8.20999,0c-2.267,-2.267 -2.267,-5.943 0,-8.21099l14.01999,-14.01999l-14.01999,-14.01999c-2.267,-2.267 -2.267,-5.943 0,-8.21099c2.266,-2.266 5.942,-2.266 8.20999,0z" fill="#ffc300" />
        </g>
      </g>
    </g>
  </g>
</svg>
